<svg width="39" height="28" viewBox="0 0 39 28" fill="none" xmlns="http://www.w3.org/2000/svg">
<g clip-path="url(#clip0_71_449)">
<path d="M31.1472 5.8572H28.6855M29.9164 4.63013V7.08428M29.1984 6.573L30.6343 5.14141M30.6343 6.573L29.1984 5.14141" stroke="#00CC5E" stroke-width="0.246161" stroke-linecap="round" stroke-linejoin="round"/>
</g>
<path d="M37.2499 4.16998H32.3267M34.7883 1.71582V6.62413M33.3523 5.60157L36.2242 2.73839M36.2242 5.60157L33.3523 2.73839" stroke="#00CC5E" stroke-width="0.410268" stroke-linecap="round" stroke-linejoin="round"/>
<path d="M16.9305 4.83202C21.1555 4.83202 25.2075 6.58151 28.195 9.69563C31.1826 12.8097 32.861 17.0334 32.861 21.4374C32.861 22.115 32.6028 22.7648 32.1431 23.2439C31.6835 23.7229 31.0601 23.9921 30.4101 23.9921H3.45084C2.80084 23.9921 2.17746 23.7229 1.71784 23.2439C1.25821 22.7648 1 22.115 1 21.4374C1 17.0334 2.67839 12.8097 5.66593 9.69563C8.65348 6.58151 12.7055 4.83202 16.9305 4.83202ZM16.9305 4.83202V1M1 26.8492H32.861" stroke="#00CC5E" stroke-width="1.74934" stroke-linecap="round" stroke-linejoin="round"/>
<path d="M19.1741 8.5144C20.3447 8.60238 24.517 9.36266 27.5514 14.6846" stroke="#00CC5E" stroke-width="0.760585" stroke-linecap="round"/>
<defs>
<clipPath id="clip0_71_449">
<rect width="3.28214" height="3.27221" fill="white" transform="translate(28.3259 4.27222)"/>
</clipPath>
</defs>
</svg>
