<svg width="97" height="47" viewBox="0 0 97 47" fill="none" xmlns="http://www.w3.org/2000/svg">
<path d="M7.11579 26.4962C8.70016 26.4962 10.2845 25.6369 11.1439 24.2942L12.5403 25.1804C11.3855 26.9796 9.26409 28.1611 7.08894 28.1611C3.06087 28.0806 0.644033 24.8044 0.644033 21.7162C0.644033 18.1984 3.54424 15.325 7.08894 15.2713C9.42522 15.2713 11.7078 16.614 12.7282 18.6012L13.0773 19.2725L3.73222 25.1267C4.53783 25.9054 5.63883 26.4693 7.11579 26.4962ZM2.30897 21.7162C2.30897 22.3607 2.47009 23.0589 2.79233 23.7571L10.8485 18.7355C9.98914 17.6345 8.53904 16.9363 7.08894 16.9363C4.45727 16.9631 2.30897 19.1114 2.30897 21.7162ZM26.3632 21.7162V28.1611H24.6983V21.7162C24.6714 19.0846 22.5231 16.9094 19.9183 16.9094C17.9849 16.9094 15.1921 18.4132 15.1384 21.7431V28.1611H13.4734V21.7162C13.554 17.6613 16.8301 15.2713 19.9183 15.2713C23.4362 15.2713 26.3095 18.1447 26.3632 21.7162ZM40.0786 21.7162V28.1611H38.4137V21.7162C38.3868 19.0846 36.2385 16.9094 33.6337 16.9094C31.7002 16.9094 28.9074 18.4132 28.8537 21.7431V28.1611H27.1888V21.7162C27.2693 17.6613 30.5455 15.2713 33.6337 15.2713C37.1515 15.2713 40.0249 18.1447 40.0786 21.7162ZM47.1342 26.4962C48.7186 26.4962 50.3029 25.6369 51.1623 24.2942L52.5587 25.1804C51.404 26.9796 49.2825 28.1611 47.1073 28.1611C43.0793 28.0806 40.6624 24.8044 40.6624 21.7162C40.6624 18.1984 43.5626 15.325 47.1073 15.2713C49.4436 15.2713 51.7262 16.614 52.7466 18.6012L53.0957 19.2725L43.7506 25.1267C44.5562 25.9054 45.6572 26.4693 47.1342 26.4962ZM42.3274 21.7162C42.3274 22.3607 42.4885 23.0589 42.8107 23.7571L50.8669 18.7355C50.0076 17.6345 48.5575 16.9363 47.1073 16.9363C44.4757 16.9631 42.3274 19.1114 42.3274 21.7162Z" fill="#3C3C3C"/>
<path d="M6.42083 43.0985C5.60159 43.0985 4.84379 42.9653 4.14743 42.6991C3.46131 42.4226 2.86224 42.0386 2.35021 41.547C1.84842 41.0452 1.45416 40.4615 1.16742 39.7959C0.880689 39.1303 0.737321 38.3981 0.737321 37.5993C0.737321 36.8005 0.880689 36.0683 1.16742 35.4027C1.45416 34.7371 1.85354 34.1585 2.36557 33.6669C2.8776 33.1651 3.47667 32.7811 4.16279 32.5148C4.85915 32.2384 5.61695 32.1001 6.4362 32.1001C7.26568 32.1001 8.0286 32.2435 8.72496 32.5302C9.43156 32.8067 10.0306 33.2214 10.5222 33.7744L9.52373 34.7422C9.1141 34.3121 8.65328 33.9946 8.14125 33.7898C7.62922 33.5747 7.08135 33.4672 6.49764 33.4672C5.89345 33.4672 5.33021 33.5696 4.80795 33.7744C4.29592 33.9792 3.85045 34.266 3.47155 34.6346C3.09265 35.0033 2.79567 35.4436 2.58062 35.9557C2.37581 36.4575 2.27341 37.0053 2.27341 37.5993C2.27341 38.1932 2.37581 38.7462 2.58062 39.2583C2.79567 39.76 3.09265 40.1953 3.47155 40.5639C3.85045 40.9326 4.29592 41.2193 4.80795 41.4241C5.33021 41.629 5.89345 41.7314 6.49764 41.7314C7.08135 41.7314 7.62922 41.629 8.14125 41.4241C8.65328 41.2091 9.1141 40.8814 9.52373 40.441L10.5222 41.4088C10.0306 41.9618 9.43156 42.3816 8.72496 42.6684C8.0286 42.9551 7.26056 43.0985 6.42083 43.0985ZM12.6735 42.9756L17.5429 32.223H19.0637L23.9484 42.9756H22.3355L17.9884 33.0832H18.6028L14.2557 42.9756H12.6735ZM14.7473 40.2874L15.162 39.0586H21.2142L21.6596 40.2874H14.7473ZM28.9908 42.9756V33.5594H25.3042V32.223H34.1982V33.5594H30.5116V42.9756H28.9908ZM39.1123 36.862H44.6422V38.1676H39.1123V36.862ZM39.2506 41.6392H45.5178V42.9756H37.7145V32.223H45.3027V33.5594H39.2506V41.6392ZM49.8484 42.9756V32.223H54.0419C54.984 32.223 55.7879 32.3715 56.4535 32.6685C57.1192 32.9654 57.6312 33.3955 57.9896 33.9588C58.348 34.522 58.5272 35.1928 58.5272 35.971C58.5272 36.7493 58.348 37.4201 57.9896 37.9833C57.6312 38.5363 57.1192 38.9613 56.4535 39.2583C55.7879 39.5552 54.984 39.7037 54.0419 39.7037H50.6932L51.3844 38.9971V42.9756H49.8484ZM57.0372 42.9756L54.303 39.0739H55.9466L58.7116 42.9756H57.0372ZM51.3844 39.1507L50.6932 38.3981H53.9958C54.9789 38.3981 55.7213 38.1881 56.2231 37.7683C56.7351 37.3382 56.9912 36.7391 56.9912 35.971C56.9912 35.203 56.7351 34.609 56.2231 34.1892C55.7213 33.7693 54.9789 33.5594 53.9958 33.5594H50.6932L51.3844 32.7913V39.1507ZM62.8523 42.9756V32.223H64.3884V42.9756H62.8523ZM69.4508 42.9756V32.223H70.7104L77.8225 41.0555H77.162V32.223H78.6981V42.9756H77.4385L70.3264 34.1431H70.9869V42.9756H69.4508ZM88.6139 43.0985C87.7844 43.0985 87.0214 42.9653 86.3251 42.6991C85.6287 42.4226 85.0245 42.0386 84.5125 41.547C84.0005 41.0452 83.6011 40.4615 83.3144 39.7959C83.0276 39.1303 82.8843 38.3981 82.8843 37.5993C82.8843 36.8005 83.0276 36.0683 83.3144 35.4027C83.6011 34.7371 84.0005 34.1585 84.5125 33.6669C85.0348 33.1651 85.6441 32.7811 86.3404 32.5148C87.0368 32.2384 87.8048 32.1001 88.6446 32.1001C89.4945 32.1001 90.2728 32.2384 90.9794 32.5148C91.686 32.7913 92.2851 33.2061 92.7766 33.7591L91.8243 34.7114C91.3839 34.2813 90.9026 33.969 90.3803 33.7744C89.8683 33.5696 89.3102 33.4672 88.706 33.4672C88.0916 33.4672 87.5181 33.5696 86.9856 33.7744C86.4633 33.9792 86.0076 34.266 85.6185 34.6346C85.2396 35.0033 84.9426 35.4436 84.7276 35.9557C84.5227 36.4575 84.4203 37.0053 84.4203 37.5993C84.4203 38.183 84.5227 38.7309 84.7276 39.2429C84.9426 39.7447 85.2396 40.185 85.6185 40.5639C86.0076 40.9326 86.4633 41.2193 86.9856 41.4241C87.5079 41.629 88.0762 41.7314 88.6907 41.7314C89.2641 41.7314 89.812 41.6443 90.3343 41.4702C90.8668 41.2859 91.3583 40.9838 91.8089 40.5639L92.6845 41.7314C92.152 42.1819 91.5273 42.525 90.8105 42.7605C90.1039 42.9858 89.3717 43.0985 88.6139 43.0985ZM91.2098 41.5317V37.5378H92.6845V41.7314L91.2098 41.5317Z" fill="#3C3C3C"/>
<g clip-path="url(#clip0_16_27)">
<path d="M89.9743 5.8572H87.5127M88.7435 4.63013V7.08428M88.0255 6.573L89.4615 5.14141M89.4615 6.573L88.0255 5.14141" stroke="#00CC5E" stroke-width="0.246161" stroke-linecap="round" stroke-linejoin="round"/>
</g>
<g clip-path="url(#clip1_16_27)">
<path d="M96.077 4.16998H91.1538M93.6154 1.71582V6.62413M92.1795 5.60157L95.0514 2.73839M95.0514 5.60157L92.1795 2.73839" stroke="#00CC5E" stroke-width="0.410268" stroke-linecap="round" stroke-linejoin="round"/>
</g>
<path d="M75.7576 4.83202C79.9827 4.83202 84.0346 6.58151 87.0222 9.69563C90.0097 12.8097 91.6881 17.0334 91.6881 21.4374C91.6881 22.115 91.4299 22.7648 90.9703 23.2439C90.5107 23.7229 89.8873 23.9921 89.2373 23.9921H62.278C61.628 23.9921 61.0046 23.7229 60.545 23.2439C60.0854 22.7648 59.8271 22.115 59.8271 21.4374C59.8271 17.0334 61.5055 12.8097 64.4931 9.69563C67.4806 6.58151 71.5326 4.83202 75.7576 4.83202ZM75.7576 4.83202V1M59.8271 26.8492H91.6881" stroke="#00CC5E" stroke-width="1.74934" stroke-linecap="round" stroke-linejoin="round"/>
<path d="M78.0012 8.5144C79.1719 8.60238 83.3442 9.36266 86.3785 14.6846" stroke="#00CC5E" stroke-width="0.760585" stroke-linecap="round"/>
<defs>
<clipPath id="clip0_16_27">
<rect width="3.28214" height="3.27221" fill="white" transform="translate(87.1531 4.27222)"/>
</clipPath>
<clipPath id="clip1_16_27">
<rect width="6.56429" height="6.54441" fill="white" transform="translate(90.436 1)"/>
</clipPath>
</defs>
</svg>
