<svg width="38" height="52" viewBox="0 0 38 52" fill="none" xmlns="http://www.w3.org/2000/svg">
<path d="M9.386 21.644C10.526 21.644 11.6027 21.3653 12.616 20.808C13.6547 20.2507 14.478 19.4907 15.086 18.528L17.062 19.782C16.2513 21.074 15.1493 22.1 13.756 22.86C12.3627 23.62 10.8933 24 9.348 24C7.92933 23.9747 6.65 23.696 5.51 23.164C4.39533 22.6067 3.44533 21.8973 2.66 21.036C1.87467 20.1747 1.26667 19.212 0.836 18.148C0.430667 17.0587 0.228 15.9693 0.228 14.88C0.228 13.6387 0.468667 12.4733 0.95 11.384C1.43133 10.2693 2.07733 9.30667 2.888 8.496C3.724 7.66 4.69933 7.00133 5.814 6.52C6.92867 6.03867 8.10667 5.78533 9.348 5.76C11.02 5.76 12.578 6.19067 14.022 7.052C15.4913 7.91333 16.5933 9.05333 17.328 10.472L17.822 11.422L4.598 19.706C5.18067 20.2633 5.852 20.7193 6.612 21.074C7.39733 21.4287 8.322 21.6187 9.386 21.644ZM2.584 14.88C2.584 15.8173 2.812 16.78 3.268 17.768L14.668 10.662C14.06 9.87667 13.2747 9.256 12.312 8.8C11.3747 8.344 10.3867 8.116 9.348 8.116C8.41067 8.116 7.524 8.306 6.688 8.686C5.87733 9.04067 5.168 9.522 4.56 10.13C3.952 10.738 3.47067 11.46 3.116 12.296C2.76133 13.1067 2.584 13.968 2.584 14.88ZM36.6225 24H34.2665V14.88C34.2665 13.9427 34.0765 13.0687 33.6965 12.258C33.3418 11.422 32.8605 10.7 32.2525 10.092C31.6445 9.45867 30.9225 8.96467 30.0865 8.61C29.2758 8.25533 28.4145 8.078 27.5025 8.078C26.8185 8.078 26.0838 8.21733 25.2985 8.496C24.5132 8.74933 23.7785 9.16733 23.0945 9.75C22.4358 10.3073 21.8785 11.0167 21.4225 11.878C20.9918 12.714 20.7638 13.7273 20.7385 14.918V24H18.3825V14.88C18.4078 13.436 18.6865 12.1567 19.2185 11.042C19.7758 9.902 20.4852 8.952 21.3465 8.192C22.2078 7.40667 23.1705 6.81133 24.2345 6.406C25.3238 5.97533 26.4132 5.76 27.5025 5.76C28.7438 5.76 29.9092 6.00067 30.9985 6.482C32.1132 6.96333 33.0758 7.622 33.8865 8.458C34.7225 9.26867 35.3812 10.2313 35.8625 11.346C36.3438 12.4353 36.5972 13.6133 36.6225 14.88V24Z" fill="#666666"/>
<path d="M28.614 47.0075C27.474 47.0075 26.3973 46.7289 25.384 46.1715C24.3453 45.6142 23.522 44.8542 22.914 43.8915L20.938 45.1455C21.7487 46.4375 22.8507 47.4635 24.244 48.2235C25.6373 48.9835 27.1067 49.3635 28.652 49.3635C30.0707 49.3382 31.35 49.0595 32.49 48.5275C33.6047 47.9702 34.5547 47.2609 35.34 46.3995C36.1253 45.5382 36.7333 44.5755 37.164 43.5115C37.5693 42.4222 37.772 41.3329 37.772 40.2435C37.772 39.0022 37.5313 37.8369 37.05 36.7475C36.5687 35.6329 35.9227 34.6702 35.112 33.8595C34.276 33.0235 33.3007 32.3649 32.186 31.8835C31.0713 31.4022 29.8933 31.1489 28.652 31.1235C26.98 31.1235 25.422 31.5542 23.978 32.4155C22.5087 33.2769 21.4067 34.4169 20.672 35.8355L20.178 36.7855L33.402 45.0695C32.8193 45.6269 32.148 46.0829 31.388 46.4375C30.6027 46.7922 29.678 46.9822 28.614 47.0075ZM35.416 40.2435C35.416 41.1809 35.188 42.1435 34.732 43.1315L23.332 36.0255C23.94 35.2402 24.7253 34.6195 25.688 34.1635C26.6253 33.7075 27.6133 33.4795 28.652 33.4795C29.5893 33.4795 30.476 33.6695 31.312 34.0495C32.1227 34.4042 32.832 34.8855 33.44 35.4935C34.048 36.1015 34.5293 36.8235 34.884 37.6595C35.2387 38.4702 35.416 39.3315 35.416 40.2435ZM1.3775 49.3635H3.7335V40.2435C3.7335 39.3062 3.9235 38.4322 4.3035 37.6215C4.65817 36.7855 5.1395 36.0635 5.7475 35.4555C6.3555 34.8222 7.0775 34.3282 7.9135 33.9735C8.72417 33.6189 9.5855 33.4415 10.4975 33.4415C11.1815 33.4415 11.9162 33.5809 12.7015 33.8595C13.4868 34.1129 14.2215 34.5309 14.9055 35.1135C15.5642 35.6709 16.1215 36.3802 16.5775 37.2415C17.0082 38.0775 17.2362 39.0909 17.2615 40.2815V49.3635H19.6175V40.2435C19.5922 38.7995 19.3135 37.5202 18.7815 36.4055C18.2242 35.2655 17.5148 34.3155 16.6535 33.5555C15.7922 32.7702 14.8295 32.1749 13.7655 31.7695C12.6762 31.3389 11.5868 31.1235 10.4975 31.1235C9.25617 31.1235 8.09083 31.3642 7.0015 31.8455C5.88683 32.3269 4.92417 32.9855 4.1135 33.8215C3.2775 34.6322 2.61883 35.5949 2.1375 36.7095C1.65617 37.7989 1.40283 38.9769 1.3775 40.2435V49.3635Z" fill="#00CC5E"/>
</svg>
