<svg width="38" height="60" viewBox="0 0 38 60" fill="none" xmlns="http://www.w3.org/2000/svg">
<path d="M9.386 21.644C11.628 21.644 13.87 20.428 15.086 18.528L17.062 19.782C15.428 22.328 12.426 24 9.348 24C3.648 23.886 0.228 19.25 0.228 14.88C0.228 9.902 4.332 5.836 9.348 5.76C12.654 5.76 15.884 7.66 17.328 10.472L17.822 11.422L4.598 19.706C5.738 20.808 7.296 21.606 9.386 21.644ZM2.584 14.88C2.584 15.792 2.812 16.78 3.268 17.768L14.668 10.662C13.452 9.104 11.4 8.116 9.348 8.116C5.624 8.154 2.584 11.194 2.584 14.88ZM36.6225 14.88V24H34.2665V14.88C34.2285 11.156 31.1885 8.078 27.5025 8.078C24.7665 8.078 20.8145 10.206 20.7385 14.918V24H18.3825V14.88C18.4965 9.142 23.1325 5.76 27.5025 5.76C32.4805 5.76 36.5465 9.826 36.6225 14.88Z" fill="#666666"/>
<path d="M28.614 55.0075C26.372 55.0075 24.13 53.7915 22.914 51.8915L20.938 53.1455C22.572 55.6915 25.574 57.3635 28.652 57.3635C34.352 57.2495 37.772 52.6135 37.772 48.2435C37.772 43.2655 33.668 39.1995 28.652 39.1235C25.346 39.1235 22.116 41.0235 20.672 43.8355L20.178 44.7855L33.402 53.0695C32.262 54.1715 30.704 54.9695 28.614 55.0075ZM35.416 48.2435C35.416 49.1555 35.188 50.1435 34.732 51.1315L23.332 44.0255C24.548 42.4675 26.6 41.4795 28.652 41.4795C32.376 41.5175 35.416 44.5575 35.416 48.2435ZM1.3775 48.2435V57.3635H3.7335V48.2435C3.7715 44.5195 6.8115 41.4415 10.4975 41.4415C13.2335 41.4415 17.1855 43.5695 17.2615 48.2815V57.3635H19.6175V48.2435C19.5035 42.5055 14.8675 39.1235 10.4975 39.1235C5.5195 39.1235 1.4535 43.1895 1.3775 48.2435Z" fill="#00CC5E"/>
</svg>
