<svg width="28" height="28" viewBox="0 0 28 28" fill="none" xmlns="http://www.w3.org/2000/svg">
<path d="M25.2569 23.1875C23.5911 20.3077 21.0241 18.2427 18.0283 17.2638C19.5101 16.3816 20.6614 15.0374 21.3054 13.4376C21.9493 11.8378 22.0503 10.0709 21.5929 8.40809C21.1354 6.74532 20.1448 5.27869 18.7731 4.23343C17.4014 3.18817 15.7245 2.62207 14 2.62207C12.2754 2.62207 10.5986 3.18817 9.22689 4.23343C7.85522 5.27869 6.86458 6.74532 6.40711 8.40809C5.94965 10.0709 6.05065 11.8378 6.6946 13.4376C7.33856 15.0374 8.48986 16.3816 9.97171 17.2638C6.97593 18.2416 4.4089 20.3066 2.74312 23.1875C2.68203 23.2872 2.64151 23.398 2.62395 23.5135C2.60639 23.629 2.61215 23.7469 2.64088 23.8601C2.66961 23.9734 2.72073 24.0798 2.79123 24.1729C2.86173 24.2661 2.95018 24.3442 3.05136 24.4027C3.15254 24.4611 3.2644 24.4987 3.38034 24.5132C3.49628 24.5277 3.61396 24.5189 3.72642 24.4872C3.83888 24.4555 3.94386 24.4016 4.03515 24.3286C4.12644 24.2557 4.2022 24.1652 4.25796 24.0625C6.31858 20.5013 9.96077 18.375 14 18.375C18.0392 18.375 21.6814 20.5013 23.742 24.0625C23.7978 24.1652 23.8735 24.2557 23.9648 24.3286C24.0561 24.4016 24.1611 24.4555 24.2736 24.4872C24.386 24.5189 24.5037 24.5277 24.6196 24.5132C24.7356 24.4987 24.8474 24.4611 24.9486 24.4027C25.0498 24.3442 25.1382 24.2661 25.2087 24.1729C25.2793 24.0798 25.3304 23.9734 25.3591 23.8601C25.3878 23.7469 25.3936 23.629 25.376 23.5135C25.3585 23.398 25.318 23.2872 25.2569 23.1875ZM7.87499 10.5C7.87499 9.28864 8.23422 8.10443 8.90724 7.09718C9.58026 6.08993 10.5369 5.30487 11.6561 4.84128C12.7753 4.3777 14.0068 4.2564 15.1949 4.49274C16.3831 4.72907 17.4744 5.31242 18.331 6.16902C19.1876 7.02561 19.771 8.11698 20.0073 9.30512C20.2436 10.4933 20.1223 11.7248 19.6588 12.844C19.1952 13.9632 18.4101 14.9198 17.4029 15.5928C16.3956 16.2658 15.2114 16.625 14 16.625C12.3761 16.6233 10.8192 15.9774 9.67088 14.8292C8.5226 13.6809 7.87673 12.124 7.87499 10.5Z" fill="#00CC5E"/>
</svg>
