<svg width="40" height="40" viewBox="0 0 40 40" fill="none" xmlns="http://www.w3.org/2000/svg">
<circle cx="20" cy="20" r="20" fill="white"/>
<path d="M30.895 17.8239H30V17.7778H20V22.2222H26.2795C25.3634 24.8095 22.9017 26.6667 20 26.6667C16.3184 26.6667 13.3334 23.6817 13.3334 20C13.3334 16.3184 16.3184 13.3334 20 13.3334C21.6995 13.3334 23.2456 13.9745 24.4228 15.0217L27.5656 11.8789C25.5811 10.0295 22.9267 8.88892 20 8.88892C13.8639 8.88892 8.88892 13.8639 8.88892 20C8.88892 26.1361 13.8639 31.1111 20 31.1111C26.1361 31.1111 31.1111 26.1361 31.1111 20C31.1111 19.255 31.0345 18.5278 30.895 17.8239Z" fill="#FFC107"/>
<path d="M10.17 14.8284L13.8206 17.5056C14.8084 15.06 17.2006 13.3334 20 13.3334C21.6995 13.3334 23.2456 13.9745 24.4228 15.0217L27.5656 11.8789C25.5812 10.0295 22.9267 8.88892 20 8.88892C15.7323 8.88892 12.0312 11.2984 10.17 14.8284Z" fill="#FF3D00"/>
<path d="M20.0001 31.1111C22.8701 31.1111 25.4778 30.0128 27.4495 28.2266L24.0106 25.3166C22.8576 26.1935 21.4487 26.6678 20.0001 26.6666C17.1101 26.6666 14.6562 24.8239 13.7317 22.2522L10.1084 25.0439C11.9473 28.6422 15.6817 31.1111 20.0001 31.1111Z" fill="#4CAF50"/>
<path d="M30.8951 17.8239H30.0001V17.7778H20.0001V22.2223H26.2796C25.8413 23.4536 25.052 24.5296 24.009 25.3173L24.0107 25.3162L27.4496 28.2262C27.2062 28.4473 31.1112 25.5556 31.1112 20.0001C31.1112 19.2551 31.0346 18.5278 30.8951 17.8239Z" fill="#1976D2"/>
</svg>
