<svg width="28" height="28" viewBox="0 0 28 28" fill="none" xmlns="http://www.w3.org/2000/svg">
<path d="M14.5 9C13.0413 9 11.6424 9.57946 10.6109 10.6109C9.57946 11.6424 9 13.0413 9 14.5C9 15.9587 9.57946 17.3576 10.6109 18.3891C11.6424 19.4205 13.0413 20 14.5 20C15.9587 20 17.3576 19.4205 18.3891 18.3891C19.4205 17.3576 20 15.9587 20 14.5C20 13.0413 19.4205 11.6424 18.3891 10.6109C17.3576 9.57946 15.9587 9 14.5 9ZM14.5 18.0719C13.5524 18.0719 12.6435 17.6955 11.9734 17.0254C11.3034 16.3553 10.9269 15.4465 10.9269 14.4988C10.9269 13.5512 11.3034 12.6423 11.9734 11.9723C12.6435 11.3022 13.5524 10.9257 14.5 10.9257C15.4476 10.9257 16.3565 11.3022 17.0266 11.9723C17.6966 12.6423 18.0731 13.5512 18.0731 14.4988C18.0731 15.4465 17.6966 16.3553 17.0266 17.0254C16.3565 17.6955 15.4476 18.0719 14.5 18.0719Z" fill="#666666"/>
<path d="M19.607 9.66572C20.3016 9.66572 20.8647 9.10265 20.8647 8.40806C20.8647 7.71347 20.3016 7.15039 19.607 7.15039C18.9124 7.15039 18.3494 7.71347 18.3494 8.40806C18.3494 9.10265 18.9124 9.66572 19.607 9.66572Z" fill="#666666"/>
<path d="M24.4437 7.61643C24.1738 6.92037 23.7612 6.28825 23.2325 5.76055C22.7038 5.23284 22.0705 4.82117 21.3733 4.5519C20.5574 4.24609 19.6954 4.08074 18.8241 4.06287C17.7011 4.01397 17.3454 4 14.4977 4C11.6499 4 11.2849 4 10.1713 4.06287C9.3006 4.07982 8.43924 4.24521 7.62439 4.5519C6.92696 4.82086 6.29354 5.23242 5.76477 5.76016C5.23601 6.28791 4.82357 6.92019 4.55392 7.61643C4.24758 8.43102 4.08235 9.29173 4.0653 10.1617C4.01516 11.2818 4 11.6369 4 14.4814C4 17.3247 4 17.6868 4.0653 18.8011C4.0828 19.672 4.24722 20.5313 4.55392 21.3475C4.82432 22.0435 5.23716 22.6755 5.76606 23.2032C6.29495 23.7308 6.92827 24.1426 7.62556 24.412C8.43887 24.7301 9.30058 24.9073 10.1736 24.936C11.2966 24.9849 11.6523 25 14.5 25C17.3477 25 17.7127 25 18.8264 24.936C19.6976 24.9183 20.5596 24.7533 21.3756 24.4481C22.0727 24.1782 22.7057 23.7662 23.2344 23.2383C23.7631 22.7105 24.1758 22.0784 24.4461 21.3824C24.7528 20.5674 24.9172 19.7081 24.9347 18.8372C24.9848 17.7171 25 17.3619 25 14.5175C25 11.673 25 11.312 24.9347 10.1978C24.9211 9.31552 24.755 8.44224 24.4437 7.61643ZM23.0234 18.7149C23.0159 19.3859 22.8932 20.0507 22.6607 20.6803C22.4856 21.1331 22.2175 21.5442 21.8736 21.8873C21.5298 22.2305 21.1178 22.4979 20.6643 22.6725C20.0406 22.9035 19.3819 23.026 18.7168 23.0346C17.609 23.0858 17.2964 23.0986 14.4557 23.0986C11.6126 23.0986 11.3222 23.0986 10.1934 23.0346C9.52863 23.0265 8.87022 22.904 8.24711 22.6725C7.79195 22.499 7.37833 22.232 7.03302 21.8888C6.68771 21.5457 6.4184 21.1339 6.2425 20.6803C6.01329 20.0574 5.89069 19.4005 5.87983 18.737C5.82969 17.6309 5.81803 17.3189 5.81803 14.4825C5.81803 11.645 5.81803 11.3551 5.87983 10.2269C5.88737 9.55625 6.01004 8.89187 6.2425 8.26264C6.59818 7.34398 7.32702 6.62092 8.24711 6.26929C8.87052 6.03892 9.52874 5.91646 10.1934 5.90719C11.3024 5.85712 11.6138 5.84315 14.4557 5.84315C17.2976 5.84315 17.5891 5.84315 18.7168 5.90719C19.382 5.91518 20.0408 6.03767 20.6643 6.26929C21.1178 6.44426 21.5297 6.71198 21.8735 7.05526C22.2173 7.39854 22.4855 7.8098 22.6607 8.26264C22.8899 8.8855 23.0125 9.54244 23.0234 10.2059C23.0735 11.3132 23.0863 11.6241 23.0863 14.4616C23.0863 17.2979 23.0864 17.603 23.0362 18.7161H23.0234V18.7149Z" fill="#666666"/>
</svg>
