<svg width="24" height="24" viewBox="0 0 24 24" fill="none" xmlns="http://www.w3.org/2000/svg">
<path d="M4 6C4 4.9 4.9 4 6 4C7.1 4 8 4.9 8 6C8 7.1 7.1 8 6 8C4.9 8 4 7.1 4 6ZM13 22C12.44 22 11.98 21.56 11.95 21L11.5 12L8 11H2C1.45 11 1 10.55 1 10C1 9.45 1.45 9 2 9H7L13.26 4.53C13.68 4.23 14.26 4.3 14.6 4.69C14.98 5.14 14.9 5.81 14.42 6.15L11.14 8.5H14L21.09 4.41C21.3049 4.2773 21.5627 4.23269 21.8097 4.28548C22.0567 4.33826 22.2738 4.48437 22.4157 4.69332C22.5575 4.90227 22.6133 5.15793 22.5712 5.40697C22.5292 5.65601 22.3926 5.87921 22.19 6.03L14.5 12L14.05 21C14.02 21.56 13.56 22 13 22Z" fill="#EEC906"/>
</svg>
