<svg width="28" height="28" viewBox="0 0 28 28" fill="none" xmlns="http://www.w3.org/2000/svg">
<path d="M8.2934 11.3543H3.98202C3.83909 11.3543 3.70201 11.4096 3.60094 11.508C3.49988 11.6065 3.4431 11.74 3.4431 11.8791V24.4752C3.4431 24.6144 3.49988 24.7479 3.60094 24.8463C3.70201 24.9447 3.83909 25 3.98202 25H8.2934C8.43633 25 8.57341 24.9447 8.67448 24.8463C8.77554 24.7479 8.83232 24.6144 8.83232 24.4752V11.8791C8.83232 11.74 8.77554 11.6065 8.67448 11.508C8.57341 11.4096 8.43633 11.3543 8.2934 11.3543ZM7.75448 23.9503H4.52094V12.404H7.75448V23.9503ZM19.6108 11.3543C18.4413 11.3543 17.3042 11.7301 16.3772 12.4239V11.8791C16.3772 11.74 16.3205 11.6065 16.2194 11.508C16.1183 11.4096 15.9812 11.3543 15.8383 11.3543H11.5269C11.384 11.3543 11.2469 11.4096 11.1459 11.508C11.0448 11.6065 10.988 11.74 10.988 11.8791V24.4752C10.988 24.6144 11.0448 24.7479 11.1459 24.8463C11.2469 24.9447 11.384 25 11.5269 25H15.8383C15.9812 25 16.1183 24.9447 16.2194 24.8463C16.3205 24.7479 16.3772 24.6144 16.3772 24.4752V18.702C16.3772 18.2844 16.5476 17.8839 16.8508 17.5886C17.154 17.2934 17.5652 17.1275 17.994 17.1275C18.4228 17.1275 18.834 17.2934 19.1372 17.5886C19.4404 17.8839 19.6108 18.2844 19.6108 18.702V24.4752C19.6108 24.6144 19.6676 24.7479 19.7686 24.8463C19.8697 24.9447 20.0068 25 20.1497 25H24.4611C24.604 25 24.7411 24.9447 24.8422 24.8463C24.9432 24.7479 25 24.6144 25 24.4752V16.6027C24.9983 15.2112 24.4299 13.8773 23.4196 12.8934C22.4093 11.9095 21.0396 11.356 19.6108 11.3543ZM23.9222 23.9503H20.6886V18.702C20.6886 18.006 20.4047 17.3385 19.8994 16.8464C19.394 16.3543 18.7087 16.0778 17.994 16.0778C17.2794 16.0778 16.594 16.3543 16.0886 16.8464C15.5833 17.3385 15.2994 18.006 15.2994 18.702V23.9503H12.0659V12.404H15.2994V13.6667C15.2994 13.7754 15.334 13.8815 15.3985 13.9702C15.463 14.0589 15.5542 14.1259 15.6595 14.162C15.7648 14.198 15.879 14.2014 15.9863 14.1715C16.0937 14.1416 16.1888 14.0801 16.2587 13.9953C16.8122 13.312 17.5708 12.814 18.4288 12.5707C19.2868 12.3274 20.2014 12.3509 21.0451 12.6379C21.8887 12.9249 22.6193 13.4612 23.1351 14.1719C23.6508 14.8826 23.926 15.7324 23.9222 16.6027V23.9503ZM6.53436 4.00873C6.40771 4.00004 6.28062 3.99934 6.15388 4.00663C5.75051 3.97991 5.34581 4.03412 4.96483 4.16591C4.58386 4.2977 4.23473 4.50427 3.93907 4.77282C3.64341 5.04136 3.40751 5.36617 3.246 5.72711C3.08449 6.08806 3.00079 6.47745 3.0001 6.87118C2.99675 7.26079 3.07563 7.64692 3.23184 8.00562C3.38805 8.36433 3.61826 8.68795 3.9082 8.95643C4.19814 9.22492 4.54162 9.43253 4.91735 9.5664C5.29308 9.70027 5.69304 9.75755 6.09244 9.73467H6.12262C6.50868 9.761 6.89629 9.71302 7.26331 9.59347C7.63033 9.47391 7.96958 9.28513 8.26169 9.0379C8.55379 8.79066 8.79303 8.48982 8.96575 8.15254C9.13846 7.81526 9.24128 7.44816 9.26831 7.07219C9.29535 6.69622 9.24608 6.31875 9.12331 5.96132C9.00055 5.60389 8.8067 5.27351 8.55283 4.98904C8.29896 4.70458 7.99004 4.47159 7.64371 4.30339C7.29738 4.13519 6.92042 4.03506 6.53436 4.00873ZM6.49663 8.68816C6.37216 8.69918 6.24688 8.69812 6.12262 8.68501H6.09244C5.83303 8.704 5.57241 8.6701 5.32721 8.58549C5.08201 8.50087 4.85762 8.36739 4.66837 8.19358C4.47912 8.01976 4.32917 7.80942 4.22808 7.57599C4.127 7.34256 4.077 7.09117 4.08129 6.83787C4.08558 6.58456 4.14406 6.33491 4.25299 6.10486C4.36192 5.8748 4.51892 5.66939 4.71395 5.50174C4.90898 5.3341 5.13776 5.2079 5.3857 5.1312C5.63363 5.0545 5.89525 5.02899 6.15388 5.0563C6.64842 5.01204 7.14076 5.16091 7.52259 5.47016C7.90443 5.77941 8.14447 6.22372 8.18993 6.70533C8.23538 7.18695 8.08251 7.66642 7.76496 8.03827C7.4474 8.41012 6.99117 8.64389 6.49663 8.68816Z" fill="#666666"/>
</svg>
