<svg width="38" height="60" viewBox="0 0 38 60" fill="none" xmlns="http://www.w3.org/2000/svg">
<path d="M9.386 21.644C10.526 21.644 11.6027 21.3653 12.616 20.808C13.6547 20.2507 14.478 19.4907 15.086 18.528L17.062 19.782C16.2513 21.074 15.1493 22.1 13.756 22.86C12.3627 23.62 10.8933 24 9.348 24C7.92933 23.9747 6.65 23.696 5.51 23.164C4.39533 22.6067 3.44533 21.8973 2.66 21.036C1.87467 20.1747 1.26667 19.212 0.836 18.148C0.430667 17.0587 0.228 15.9693 0.228 14.88C0.228 13.6387 0.468667 12.4733 0.95 11.384C1.43133 10.2693 2.07733 9.30667 2.888 8.496C3.724 7.66 4.69933 7.00133 5.814 6.52C6.92867 6.03867 8.10667 5.78533 9.348 5.76C11.02 5.76 12.578 6.19067 14.022 7.052C15.4913 7.91333 16.5933 9.05333 17.328 10.472L17.822 11.422L4.598 19.706C5.18067 20.2633 5.852 20.7193 6.612 21.074C7.39733 21.4287 8.322 21.6187 9.386 21.644ZM2.584 14.88C2.584 15.8173 2.812 16.78 3.268 17.768L14.668 10.662C14.06 9.87667 13.2747 9.256 12.312 8.8C11.3747 8.344 10.3867 8.116 9.348 8.116C8.41067 8.116 7.524 8.306 6.688 8.686C5.87733 9.04067 5.168 9.522 4.56 10.13C3.952 10.738 3.47067 11.46 3.116 12.296C2.76133 13.1067 2.584 13.968 2.584 14.88ZM36.6225 24H34.2665V14.88C34.2665 13.9427 34.0765 13.0687 33.6965 12.258C33.3418 11.422 32.8605 10.7 32.2525 10.092C31.6445 9.45867 30.9225 8.96467 30.0865 8.61C29.2758 8.25533 28.4145 8.078 27.5025 8.078C26.8185 8.078 26.0838 8.21733 25.2985 8.496C24.5132 8.74933 23.7785 9.16733 23.0945 9.75C22.4358 10.3073 21.8785 11.0167 21.4225 11.878C20.9918 12.714 20.7638 13.7273 20.7385 14.918V24H18.3825V14.88C18.4078 13.436 18.6865 12.1567 19.2185 11.042C19.7758 9.902 20.4852 8.952 21.3465 8.192C22.2078 7.40667 23.1705 6.81133 24.2345 6.406C25.3238 5.97533 26.4132 5.76 27.5025 5.76C28.7438 5.76 29.9092 6.00067 30.9985 6.482C32.1132 6.96333 33.0758 7.622 33.8865 8.458C34.7225 9.26867 35.3812 10.2313 35.8625 11.346C36.3438 12.4353 36.5972 13.6133 36.6225 14.88V24Z" fill="#666666"/>
<path d="M28.614 55.0075C27.474 55.0075 26.3973 54.7289 25.384 54.1715C24.3453 53.6142 23.522 52.8542 22.914 51.8915L20.938 53.1455C21.7487 54.4375 22.8507 55.4635 24.244 56.2235C25.6373 56.9835 27.1067 57.3635 28.652 57.3635C30.0707 57.3382 31.35 57.0595 32.49 56.5275C33.6047 55.9702 34.5547 55.2609 35.34 54.3995C36.1253 53.5382 36.7333 52.5755 37.164 51.5115C37.5693 50.4222 37.772 49.3329 37.772 48.2435C37.772 47.0022 37.5313 45.8369 37.05 44.7475C36.5687 43.6329 35.9227 42.6702 35.112 41.8595C34.276 41.0235 33.3007 40.3649 32.186 39.8835C31.0713 39.4022 29.8933 39.1489 28.652 39.1235C26.98 39.1235 25.422 39.5542 23.978 40.4155C22.5087 41.2769 21.4067 42.4169 20.672 43.8355L20.178 44.7855L33.402 53.0695C32.8193 53.6269 32.148 54.0829 31.388 54.4375C30.6027 54.7922 29.678 54.9822 28.614 55.0075ZM35.416 48.2435C35.416 49.1809 35.188 50.1435 34.732 51.1315L23.332 44.0255C23.94 43.2402 24.7253 42.6195 25.688 42.1635C26.6253 41.7075 27.6133 41.4795 28.652 41.4795C29.5893 41.4795 30.476 41.6695 31.312 42.0495C32.1227 42.4042 32.832 42.8855 33.44 43.4935C34.048 44.1015 34.5293 44.8235 34.884 45.6595C35.2387 46.4702 35.416 47.3315 35.416 48.2435ZM1.3775 57.3635H3.7335V48.2435C3.7335 47.3062 3.9235 46.4322 4.3035 45.6215C4.65817 44.7855 5.1395 44.0635 5.7475 43.4555C6.3555 42.8222 7.0775 42.3282 7.9135 41.9735C8.72417 41.6189 9.5855 41.4415 10.4975 41.4415C11.1815 41.4415 11.9162 41.5809 12.7015 41.8595C13.4868 42.1129 14.2215 42.5309 14.9055 43.1135C15.5642 43.6709 16.1215 44.3802 16.5775 45.2415C17.0082 46.0775 17.2362 47.0909 17.2615 48.2815V57.3635H19.6175V48.2435C19.5922 46.7995 19.3135 45.5202 18.7815 44.4055C18.2242 43.2655 17.5148 42.3155 16.6535 41.5555C15.7922 40.7702 14.8295 40.1749 13.7655 39.7695C12.6762 39.3389 11.5868 39.1235 10.4975 39.1235C9.25617 39.1235 8.09083 39.3642 7.0015 39.8455C5.88683 40.3269 4.92417 40.9855 4.1135 41.8215C3.2775 42.6322 2.61883 43.5949 2.1375 44.7095C1.65617 45.7989 1.40283 46.9769 1.3775 48.2435V57.3635Z" fill="#00CC5E"/>
</svg>
