<svg width="24" height="24" viewBox="0 0 24 24" fill="none" xmlns="http://www.w3.org/2000/svg">
<path d="M12 21C10.05 21 8.39567 20.3206 7.037 18.962C5.67833 17.6033 4.99933 15.9493 5 14C5 12.4333 5.46267 11.029 6.388 9.78698C7.31333 8.54498 8.52567 7.70764 10.025 7.27498C9.69167 7.19164 9.36667 7.07064 9.05 6.91198C8.73333 6.75331 8.45 6.54931 8.2 6.29998C7.65 5.74998 7.296 5.09598 7.138 4.33798C6.98 3.57998 6.94233 2.80898 7.025 2.02498C7.80833 1.94164 8.57933 1.97931 9.338 2.13798C10.0967 2.29664 10.7507 2.65064 11.3 3.19998C11.6833 3.58331 11.9627 4.01664 12.138 4.49998C12.3133 4.98331 12.4257 5.49164 12.475 6.02498C12.6917 5.50831 12.9543 5.02064 13.263 4.56198C13.5717 4.10331 13.9173 3.68264 14.3 3.29998C14.4833 3.11664 14.7167 3.02498 15 3.02498C15.2833 3.02498 15.5167 3.11664 15.7 3.29998C15.8833 3.48331 15.975 3.71664 15.975 3.99998C15.975 4.28331 15.8833 4.51664 15.7 4.69998C15.3333 5.06664 15.0083 5.47098 14.725 5.91298C14.4417 6.35498 14.2333 6.82564 14.1 7.32498C15.5667 7.79164 16.75 8.63764 17.65 9.86298C18.55 11.0883 19 12.4673 19 14C19 15.95 18.3207 17.6043 16.962 18.963C15.6033 20.3216 13.9493 21.0006 12 21Z" fill="#00CC5E"/>
</svg>
