<svg width="116" height="90" viewBox="0 0 116 90" fill="none" xmlns="http://www.w3.org/2000/svg">
<path d="M76.8023 77.9813C75.9044 77.9813 75.0432 77.6235 74.4082 76.9866C73.7732 76.3497 73.4165 75.4858 73.4165 74.585C73.4165 73.6843 73.7732 72.8204 74.4082 72.1835C75.0432 71.5466 75.9044 71.1888 76.8023 71.1888H91.3873C92.9718 71.1883 94.5327 70.8042 95.9376 70.0692C97.3424 69.3341 98.5497 68.2697 99.4567 66.9665C100.364 65.6633 100.944 64.1597 101.148 62.5835C101.351 61.0073 101.173 59.4051 100.627 57.9129C100.082 56.4207 99.1851 55.0826 98.0136 54.0124C96.8422 52.9422 95.4305 52.1713 93.8986 51.7655C92.3666 51.3596 90.7596 51.3306 89.2141 51.681C87.6686 52.0314 86.2303 52.7508 85.0212 53.7781L85.0361 53.7669C84.3473 54.3199 83.4707 54.5817 82.5925 54.4967C81.7143 54.4117 80.9037 53.9865 80.3331 53.3116C79.7624 52.6366 79.4766 51.765 79.5364 50.8821C79.5961 49.9991 79.9968 49.1743 80.6532 48.5829L80.6569 48.5792C82.8852 46.6829 85.5748 45.4131 88.4517 44.8992L88.5521 44.8843C88.5159 39.2826 86.6944 33.8394 83.3537 29.3504C80.0131 24.8614 75.3285 21.562 69.9849 19.9346C64.6413 18.3071 58.9187 18.4369 53.6539 20.3051C48.3891 22.1732 43.8581 25.6817 40.7231 30.3176L40.6636 30.4109C43.2239 31.324 45.6135 32.6612 47.7329 34.367L47.6845 34.3297C48.2366 34.7669 48.6394 35.3656 48.837 36.0428C49.0347 36.7199 49.0174 37.442 48.7876 38.1089C48.5579 38.7758 48.1269 39.3544 47.5546 39.7646C46.9823 40.1748 46.2969 40.3963 45.5935 40.3982C44.8117 40.3999 44.0538 40.128 43.4504 39.6294L43.4578 39.6331C40.3565 37.1132 36.4842 35.7424 32.4931 35.7516H32.441C27.7577 35.7516 23.27 37.6178 19.9584 40.9396C16.6469 44.2615 14.7865 48.7668 14.7865 53.4646C14.7865 58.1624 16.6469 62.6677 19.9584 65.9896C23.27 69.3114 27.7614 71.1776 32.4447 71.1776H40.232C41.13 71.1776 41.9912 71.5354 42.6261 72.1723C43.2611 72.8092 43.6178 73.6731 43.6178 74.5739C43.6178 75.4746 43.2611 76.3385 42.6261 76.9754C41.9912 77.6123 41.13 77.9701 40.232 77.9701H32.4335C25.9534 77.9701 19.7386 75.3879 15.1564 70.7915C10.5742 66.1952 8 59.9611 8 53.4609C8 46.9606 10.5742 40.7266 15.1564 36.1302C19.7386 31.5338 25.9534 28.9516 32.4335 28.9516C32.813 28.9516 33.1851 28.9815 33.5683 29.0001C39.3093 18.7851 50.0545 12 62.3773 12C71.1183 12.001 79.501 15.4843 85.6821 21.6838C91.8632 27.8834 95.3366 36.2917 95.3386 45.0597V45.1269C102.661 46.9706 108 53.5131 108 61.3097C107.999 65.728 106.249 69.9651 103.134 73.0893C100.02 76.2135 95.7957 77.9692 91.391 77.9701L76.8023 77.9813ZM54.6049 74.585V58.9584L50.7764 62.8025C50.1409 63.4395 49.2792 63.7971 48.3808 63.7968C47.4824 63.7964 46.621 63.4381 45.986 62.8007C45.351 62.1632 44.9945 61.2988 44.9948 60.3977C44.9952 59.4965 45.3524 58.6324 45.9879 57.9955L55.5983 48.3515C55.81 48.1448 56.0476 47.9666 56.3052 47.8215L56.3238 47.8141C56.3871 47.7767 56.4503 47.7469 56.5136 47.717C56.7556 47.5866 57.0132 47.4876 57.2801 47.4222L57.3024 47.4185H57.3396C57.6279 47.3656 57.922 47.3518 58.2139 47.3774H58.2028H58.24C58.3032 47.3774 58.3665 47.3849 58.426 47.3998H58.4223C58.7423 47.4371 59.0325 47.5118 59.3078 47.6275L59.2855 47.62C59.4693 47.6993 59.6461 47.7942 59.8138 47.9036L59.8027 47.8962C59.8547 47.926 59.8957 47.9634 59.944 47.9932C60.0718 48.0849 60.1935 48.1846 60.3087 48.2918L60.3905 48.359L70.0084 58.0029C70.3231 58.3183 70.5727 58.6928 70.7431 59.105C70.9135 59.5172 71.0013 59.9589 71.0014 60.4052C71.0016 60.8514 70.9142 61.2932 70.7441 61.7055C70.574 62.1178 70.3247 62.4925 70.0103 62.8081C69.6959 63.1238 69.3225 63.3742 68.9116 63.5451C68.5007 63.716 68.0603 63.8041 67.6155 63.8043C67.1707 63.8044 66.7302 63.7167 66.3191 63.5461C65.9081 63.3755 65.5346 63.1254 65.2199 62.81L61.3877 58.9658V74.6037C61.3877 75.5045 61.0309 76.3683 60.396 77.0052C59.761 77.6422 58.8998 78 58.0019 78C57.1039 78 56.2427 77.6422 55.6077 77.0052C54.9728 76.3683 54.6161 75.5045 54.6161 74.6037L54.6049 74.585Z" fill="#53EF89"/>
</svg>
