<svg width="28" height="28" viewBox="0 0 28 28" fill="none" xmlns="http://www.w3.org/2000/svg">
<path d="M24.7469 14.5C24.7469 8.70085 19.8788 4 13.8734 4C7.86804 4 3 8.70085 3 14.5C3 20.2991 7.86804 25 13.8734 25" stroke="#666666" stroke-width="1.5" stroke-linecap="round" stroke-linejoin="round"/>
<path d="M14.9608 4.05249C14.9608 4.05249 18.2228 8.19999 18.2228 14.5M12.7861 24.9475C12.7861 24.9475 9.52409 20.8 9.52409 14.5C9.52409 8.19999 12.7861 4.05249 12.7861 4.05249M3.68506 18.175H13.8735M3.68506 10.825H24.0619" stroke="#666666" stroke-width="1.5" stroke-linecap="round" stroke-linejoin="round"/>
<path d="M24.6153 20.7128C25.1524 21.032 25.1187 21.808 24.5664 21.8689L21.7751 22.1744L20.5236 24.602C20.2757 25.084 19.5091 24.8477 19.3819 24.2513L18.0173 17.8295C17.9096 17.3255 18.3794 17.0084 18.8328 17.2783L24.6153 20.7128Z" stroke="#666666" stroke-width="1.5"/>
</svg>
