<svg width="28" height="28" viewBox="0 0 28 28" fill="none" xmlns="http://www.w3.org/2000/svg">
<path d="M23.424 22.2329L23.5904 23.0015L23.4224 22.2329H23.424ZM23.424 5.76675L23.5904 4.99814L23.4224 5.76675H23.424ZM12.4 10.8562L12.8432 10.2024C12.7227 10.1236 12.5828 10.0784 12.4382 10.0716C12.2937 10.0648 12.15 10.0967 12.0224 10.1638C11.8948 10.2309 11.7882 10.3307 11.7138 10.4527C11.6394 10.5746 11.6001 10.7141 11.6 10.8562H12.4ZM12.4 17.1434H11.6C11.6001 17.2856 11.6394 17.4251 11.7138 17.547C11.7882 17.6689 11.8948 17.7688 12.0224 17.8359C12.15 17.903 12.2937 17.9348 12.4382 17.928C12.5828 17.9212 12.7227 17.876 12.8432 17.7973L12.4 17.1434ZM17.2 13.9998L17.6432 14.6537C17.7528 14.5819 17.8426 14.4847 17.9047 14.3706C17.9669 14.2566 17.9994 14.1292 17.9994 13.9998C17.9994 13.8705 17.9669 13.7431 17.9047 13.629C17.8426 13.515 17.7528 13.4177 17.6432 13.346L17.2 13.9998ZM2 7.9264V20.0733H3.6V7.9264H2ZM26 20.0733V7.9264H24.4V20.0733H26ZM4.4096 23.0015C10.7312 24.3328 17.2688 24.3328 23.5904 23.0015L23.2544 21.4643C17.154 22.7485 10.846 22.7485 4.7456 21.4643L4.4096 23.0015ZM23.5904 4.99814C17.2686 3.66729 10.7314 3.66729 4.4096 4.99814L4.7456 6.53536C10.846 5.25129 17.154 5.25129 23.2544 6.53536L23.5904 4.99814ZM26 7.9264C26 6.51492 24.9952 5.29364 23.5904 4.99814L23.2544 6.53536C23.9232 6.67682 24.4 7.25524 24.4 7.9264H26ZM24.4 20.0733C24.4 20.3989 24.2862 20.7147 24.0777 20.9679C23.8692 21.2211 23.5786 21.3963 23.2544 21.4643L23.5904 23.0015C24.2725 22.858 24.8838 22.489 25.3224 21.956C25.7609 21.4231 26.0001 20.7585 26 20.0733H24.4ZM2 20.0733C2 21.4847 3.0048 22.706 4.4096 23.0015L4.7456 21.4643C4.42141 21.3963 4.13079 21.2211 3.92228 20.9679C3.71378 20.7147 3.60002 20.3989 3.6 20.0733H2ZM3.6 7.9264C3.6 7.25524 4.0768 6.67525 4.7456 6.53536L4.4096 4.99814C3.7275 5.14167 3.11616 5.5107 2.67762 6.04363C2.23909 6.57655 1.99991 7.24112 2 7.9264H3.6ZM11.6 10.8562V17.1434H13.2V10.8562H11.6ZM12.8432 17.7973L17.6432 14.6537L16.7568 13.346L11.9568 16.4896L12.8432 17.7973ZM17.6432 13.346L12.8432 10.2024L11.9568 11.5101L16.7568 14.6537L17.6432 13.346Z" fill="#666666"/>
</svg>
